<svg width="340" height="60" viewBox="0 0 340 60" fill="none" xmlns="http://www.w3.org/2000/svg">
<g clip-path="url(#clip0_257_187)">
<path d="M50.3279 0.0474243V10.5018H27.1434C15.6104 10.5018 10.4425 16.2624 10.4425 30.083C10.4425 43.9036 15.3734 49.5456 27.0249 49.5456H50.2094V60H27.1434C9.6128 60 0 50.1383 0 30.083C0 10.0277 9.73133 0.0474243 27.1434 0.0474243H50.3279Z" fill="black"/>
<path d="M159.969 0.0355835C174.097 0.0355835 179.965 6.74439 179.965 16.4402C179.965 23.386 176.966 27.4635 171.347 29.7393C176.978 32.015 180.214 36.4481 180.214 43.3939C180.214 52.9712 174.228 59.9171 160.217 59.9171H133.631C130.277 59.9171 128.605 58.3643 128.605 55.0099V4.94273C128.605 1.70686 130.158 0.0355835 133.631 0.0355835H159.98H159.969ZM139.012 25.3062H160.324C166.547 25.3062 169.546 23.0304 169.546 18.1233C169.546 13.2161 166.796 10.3359 160.443 10.3359H140.198C139.475 10.3359 139.001 10.6915 139.001 11.4145V25.3062H139.012ZM139.012 48.5382C139.012 49.2612 139.487 49.4982 140.21 49.4982H160.573C166.914 49.4982 169.795 46.6298 169.795 41.7108C169.795 36.7918 166.677 34.0419 160.573 34.0419H139.012V48.5382Z" fill="black"/>
<path d="M195.646 59.9526H184.326L204.962 7.58596C207.203 2.03874 211.209 0.0355835 217.349 0.0355835C223.489 0.0355835 227.495 2.15727 229.617 7.58596L249.553 59.9526H238.115L220.182 12.5405C219.589 11.2485 218.653 10.6559 217.23 10.6559C215.808 10.6559 214.871 11.2485 214.279 12.6591L195.646 59.9526Z" fill="black"/>
<path d="M264.678 0.0355835V39.1269C264.678 44.8874 267.558 49.439 276.91 49.439H300.178V59.8696H276.317C260.482 59.8696 254.247 51.2406 254.247 39.2454V0.0355835H264.678Z" fill="black"/>
<path d="M339.506 0.0355835V10.49H321.964V60H311.391V10.49H293.849V0.0355835H339.506Z" fill="black"/>
<path d="M91.7307 0C109.131 0 118.85 9.95654 118.85 30.1185C118.85 50.2805 109.249 60 91.7307 60H83.5758C66.057 60 56.4561 50.2805 56.4561 30.1185C56.4561 9.95654 66.1755 0 83.5758 0H91.7307ZM83.5758 10.4425C72.0546 10.4425 67.0171 16.3216 67.0171 30.1185C67.0171 43.9154 72.0546 49.439 83.5758 49.439H91.7307C103.252 49.439 108.289 43.7969 108.289 30C108.289 16.2031 103.252 10.4425 91.7307 10.4425H83.5758Z" fill="black"/>
<path d="M86.0772 21.9162C85.4016 21.9399 84.726 21.9992 84.074 22.1296C82.9717 22.3429 81.9168 22.7933 81.1226 23.5993C80.2929 24.4528 79.8307 25.5788 79.5817 26.7167C79.3328 27.819 79.2617 28.9569 79.2617 30.083C79.2617 35.8198 81.3004 38.0956 86.0772 38.0956H89.4316C94.2202 38.0956 96.2471 35.7013 96.2471 30.083C96.2471 28.5895 96.1641 27.0604 95.6782 25.6381C95.3107 24.5594 94.6825 23.5875 93.7224 22.9593C91.9444 21.7977 89.6805 21.8451 87.6299 21.8688C87.1084 21.8688 86.5869 21.8807 86.0654 21.9044L86.0772 21.9162Z" fill="black"/>
</g>
<defs>
<clipPath id="clip0_257_187">
<rect width="339.506" height="60" fill="white"/>
</clipPath>
</defs>
</svg>
