<?xml version="1.0" encoding="UTF-8"?>
<svg id="Calque_2" data-name="Calque 2" xmlns="http://www.w3.org/2000/svg" viewBox="0 0 2036.64 230.55">
  <defs>
    <style>
      .cls-1 {
        fill: #2337e7;
        stroke-width: 0px;
      }
    </style>
  </defs>
  <g id="Calque_1-2" data-name="Calque 1">
    <g>
      <g>
        <path class="cls-1" d="M394.19,0h-.19c-18.65,0-39.73,0-61.17.02-8.59,0-17.24,0-25.82.02-3.06,0-6.11,0-9.14,0-27.87,2.33-49.83,25.76-49.83,54.23s22.01,51.94,49.92,54.24c2.97,0,5.97,0,8.97,0,8.6,0,17.28,0,25.9,0,21.2.02,42.06.02,60.56.02h.37c.16,0,.32,0,.47-.02,29.51-.44,53.38-24.56,53.43-54.17v-.16c-.03-29.62-23.92-53.76-53.47-54.19ZM395.91,97.33c-15.03,0-28.26-7.7-35.96-19.37-2.02-3.04-3.65-6.36-4.85-9.88h0c-1.47-4.34-2.26-8.99-2.26-13.82s.8-9.49,2.27-13.82h0c1.19-3.52,2.82-6.83,4.84-9.88,7.7-11.67,20.92-19.37,35.96-19.37,23.78,0,43.07,19.28,43.07,43.07s-19.28,43.07-43.07,43.07Z"/>
        <path class="cls-1" d="M266.06,108.51h-54.1c-6.35-.24-9.47.54-16.33-.68-6.57-1.25-12.21-2.61-20.67-6.02-10.57-4.12-19.39-11.41-28.52-17.05-13.79-8.43-39.41-11.12-57.57-11.03-19.43-.16-42.01-.07-60.3-.15-8.42-.02-15.34.02-19.59-.05-2.97-.07-5.66-.63-6.88-3.74-.44-.89-.55-1.65-.86-2.6-.99-3.99-1.22-8.5-1.25-12.91,0-4.69.52-10.97,1.57-14.05.99-3.83,3.67-5.3,7.42-5.21,4.24-.07,11.17-.03,19.59-.05,18.3-.07,40.86.02,60.3-.15,18.13.09,43.8-2.59,57.57-11.01,9.14-5.64,17.96-12.93,28.52-17.05,8.46-3.42,14.08-4.76,20.67-6.03,5.04-.81,10.32-.68,16.33-.68h54.08c-18.94,10.66-31.77,30.98-31.77,54.23s12.84,43.57,31.79,54.24Z"/>
      </g>
      <g>
        <path class="cls-1" d="M129.01,176.2v.16c.05,29.6,23.92,53.72,53.43,54.17.15.02.31.02.47.02h.37c18.5,0,39.36,0,60.56-.02,8.62,0,17.3,0,25.9,0,3,0,5.99,0,8.97,0,27.91-2.29,49.92-25.74,49.92-54.24,0-28.47-21.96-51.9-49.83-54.23-3.03,0-6.09,0-9.14,0-8.58,0-17.22,0-25.82-.02-21.44,0-42.52-.02-61.17-.02h-.19c-29.55.43-53.44,24.57-53.47,54.19ZM137.7,176.27c0-23.78,19.28-43.07,43.07-43.07,15.03,0,28.26,7.7,35.96,19.37,2.02,3.04,3.65,6.35,4.84,9.87h0c1.48,4.34,2.27,9,2.27,13.83s-.8,9.48-2.26,13.82h0c-1.19,3.52-2.83,6.84-4.85,9.89-7.7,11.67-20.92,19.37-35.96,19.37-23.78,0-43.07-19.28-43.07-43.07Z"/>
        <path class="cls-1" d="M310.61,230.52h54.1c6.35-.24,9.47.54,16.33-.68,6.57-1.25,12.21-2.61,20.67-6.02,10.57-4.12,19.39-11.41,28.52-17.05,13.79-8.43,39.41-11.12,57.57-11.03,19.43-.16,42.01-.07,60.3-.15,8.42-.02,15.34.02,19.59-.05,2.97-.07,5.66-.63,6.88-3.74.44-.89.55-1.65.86-2.6.99-3.99,1.22-8.5,1.25-12.91,0-4.69-.52-10.97-1.57-14.05-.99-3.83-3.67-5.3-7.42-5.21-4.24-.07-11.17-.03-19.59-.05-18.3-.07-40.86.02-60.3-.15-18.13.09-43.8-2.59-57.57-11.01-9.14-5.64-17.96-12.93-28.52-17.05-8.46-3.42-14.08-4.76-20.67-6.03-5.04-.81-10.32-.68-16.33-.68h-54.08c18.94,10.66,31.77,30.98,31.77,54.23s-12.84,43.57-31.79,54.24Z"/>
      </g>
    </g>
    <g>
      <path class="cls-1" d="M677.36,45.82h31.97l39.33,116.15,39.1-116.15h31.28l-54.51,150.42h-32.43l-54.74-150.42Z"/>
      <path class="cls-1" d="M829.62,49.73c0-10.58,7.59-18.4,18.17-18.4s18.17,7.82,18.17,18.4-7.59,18.17-18.17,18.17-18.17-7.59-18.17-18.17ZM833.99,82.61h27.37v113.62h-27.37v-113.62Z"/>
      <path class="cls-1" d="M883.2,130.22c0-34.27,20.24-50.6,49.91-50.6s49.68,16.33,49.68,51.06v.69h-27.14v-1.15c0-18.4-9.2-25.07-22.54-25.07s-22.54,6.67-22.54,25.07v66.01h-27.37v-66.01Z"/>
      <path class="cls-1" d="M992.91,152.53V42.37h27.37v40.25h58.65v24.84h-58.65v45.08c0,15.18,7.82,21.16,19.09,21.16s19.09-5.75,19.09-21.16v-2.99h27.37v2.99c0,31.51-18.86,46.69-46.46,46.69s-46.46-15.18-46.46-46.69Z"/>
      <path class="cls-1" d="M1098.71,141.72v-59.11h27.37v59.11c0,21.62,11.5,31.97,28.75,31.97s28.75-10.35,28.75-31.97v-59.11h27.37v59.11c0,37.95-22.54,57.5-56.12,57.5s-56.12-19.32-56.12-57.5Z"/>
      <path class="cls-1" d="M1224.29,140.57c0-36.11,25.3-60.95,61.41-60.95s60.49,24.15,60.49,60.72v55.89h-25.07v-22.31c-6.9,16.79-22.31,25.3-40.25,25.3-27.6,0-56.58-19.78-56.58-58.65ZM1318.82,139.42c0-20.01-13.34-34.27-33.35-34.27s-33.58,14.26-33.58,34.27,13.57,34.27,33.58,34.27,33.35-14.26,33.35-34.27Z"/>
      <path class="cls-1" d="M1368.04,32.94h27.37v163.3h-27.37V32.94Z"/>
      <path class="cls-1" d="M1413.58,152.76h28.75c.23,11.96,9.2,20.01,27.14,20.01s27.14-8.05,27.14-20.01c0-13.11-14.03-15.64-30.36-18.63-22.77-4.14-49.68-8.97-49.68-43.93,0-27.83,21.16-47.38,53.13-47.38s51.98,18.63,53.13,46.23h-27.83c-.23-11.5-8.74-19.78-25.07-19.78s-24.84,8.97-24.84,20.01c0,13.11,14.03,15.64,30.36,18.63,22.77,4.14,49.91,8.97,49.91,43.93,0,29.21-22.31,47.38-55.89,47.38s-55.2-17.71-55.89-46.46Z"/>
      <path class="cls-1" d="M1535.25,139.42c0-34.5,25.3-59.8,61.18-59.8s61.18,25.3,61.18,59.8-25.3,59.8-61.18,59.8-61.18-25.3-61.18-59.8ZM1629.77,139.42c0-20.01-13.34-34.27-33.35-34.27s-33.58,14.26-33.58,34.27,13.57,34.27,33.58,34.27,33.35-14.26,33.35-34.27Z"/>
      <path class="cls-1" d="M1670.94,131.37c0-35.65,20.7-51.75,47.61-51.75,17.02,0,31.05,7.13,39.33,20.47,8.05-13.34,22.08-20.47,39.33-20.47,26.91,0,47.61,16.1,47.61,51.75v64.86h-27.37v-64.86c0-18.63-9.66-26.22-23-26.22s-22.77,7.82-22.77,26.22v64.86h-27.37v-64.86c0-18.4-9.89-26.22-23-26.22s-23,7.59-23,26.22v64.86h-27.37v-64.86Z"/>
      <path class="cls-1" d="M1862.76,131.37c0-35.65,20.7-51.75,47.61-51.75,17.02,0,31.05,7.13,39.33,20.47,8.05-13.34,22.08-20.47,39.33-20.47,26.91,0,47.61,16.1,47.61,51.75v64.86h-27.37v-64.86c0-18.63-9.66-26.22-23-26.22s-22.77,7.82-22.77,26.22v64.86h-27.37v-64.86c0-18.4-9.89-26.22-23-26.22s-23,7.59-23,26.22v64.86h-27.37v-64.86Z"/>
    </g>
  </g>
</svg>